<svg id="Layer_1" data-name="Layer 1" xmlns="http://www.w3.org/2000/svg" viewBox="0 0 1070.4 783.1"><defs><style>.cls-1{fill:#f1592b;}</style></defs><title>logo</title><path class="cls-1" d="M294,148.79c-33.38,4.14-59.16,16.34-81.2,38.5a131.42,131.42,0,0,0-37.7,79.59c-1,9.44-.4,27.22,1.21,36.31a132.72,132.72,0,0,0,30,63.65c6.22,7.19,9.38,10,13.29,11.74,16.46,7.31,34.53-6.5,31.54-23.94-1-5.35-2.82-8.69-8.17-14.5a88,88,0,0,1-22.5-45.81c-1-5.87-1.09-8.46-.86-16.46.46-14.21,2.94-24.11,9.09-36.43,4.89-9.78,10-16.52,18.65-24.52A87.27,87.27,0,0,1,369.07,342c-21.75,23-33.78,39.77-46,64.17C294.6,463,290,530.52,310.36,591.52,321.59,625.07,339,653.85,365.15,682c3.11,3.34,6,7,6.5,8.11a16.55,16.55,0,0,1-.23,11c-1.38,3.11-5.75,6.85-9,7.77a15,15,0,0,1-11-1.44c-4.6-2.7-23.25-24.11-32.86-37.75a254.84,254.84,0,0,1-21.52-36.49c-13.81-27.91-22.1-56.11-26.24-89.49-1.44-11.91-1.5-47.25,0-59.28,4.09-33.55,12.72-62.67,26.88-90.93,12.72-25.44,27.57-46.39,48.17-68,7.25-7.6,9.09-9.9,11.91-14.73,8.86-15.14,10.36-34.93,3.86-51.74A61,61,0,0,0,342,233a59.48,59.48,0,0,0-68.2-1.61c-11.51,7.77-15.65,14.39-15.14,24.52.17,3.8.58,5.75,1.84,8.4a23.67,23.67,0,0,0,10.93,11c3.17,1.44,4.14,1.61,9.55,1.61s6.39-.17,9.27-1.61a31.34,31.34,0,0,0,5.87-3.86c3.57-3.17,6.91-4.6,10.76-4.6a13.86,13.86,0,0,1,13.81,13.47c0,5.12-1,7-7.14,13.52a350.72,350.72,0,0,0-31.65,38.21,309.23,309.23,0,0,0-42.13,84.14l-3.34,10.36-6-6.1a132.81,132.81,0,0,0-78-37.93c-6.85-.86-23.88-.86-31.08,0A132.21,132.21,0,0,0,6.44,491.1c-1.78,9.84-2.19,29.41-.86,39.94A128.5,128.5,0,0,0,18.07,572.3a132,132,0,0,0,96.34,72.22c5.93,1,9.67,1.32,18.13,1.32,10.36.06,10.7,0,13.93-1.5,13.35-6.27,17-24.52,7-35.51-4.66-5.18-9.15-6.85-20.32-7.54a123.4,123.4,0,0,1-13-1.44c-34.53-7.19-60.89-33-68.83-67.56-1.5-6.39-2.07-22.39-1.15-29.58,7.25-54.27,62.38-88.74,114.35-71.48a83.51,83.51,0,0,1,33.9,21.29A84.32,84.32,0,0,1,221.68,493c1.9,7.54,2.42,12.49,2.94,29.18.58,17.5,1.55,28.54,3.74,42.13A310.06,310.06,0,0,0,258,656.09l5.7,11.39-10.19.06c-5.58,0-12.55.35-15.48.69l-5.29.75-4-8.69c-20.14-43.62-30.5-86.21-32.29-133.52-.75-18.76-1.32-24.29-3.22-30.33a59.23,59.23,0,0,0-47.94-40.75,68.76,68.76,0,0,0-23.08,1.15,59.29,59.29,0,0,0-38.1,30.79c-6.22,12.37-8,27.51-4.26,35.74a25.27,25.27,0,0,0,10.7,11c2.88,1.5,3.68,1.61,9.5,1.61,6,0,6.56-.12,10.19-1.9A22.81,22.81,0,0,0,121,522.69a43.49,43.49,0,0,0,1.67-7.94c.69-7.14,3.22-11,8.69-13.52a13.88,13.88,0,0,1,18.3,7.42c1,2.19,1.21,4.55,1.5,14.68,1.78,55,13.24,104.74,35.34,153.25l3.51,7.6-1.84,1c-3,1.5-11.34,7.25-16.17,11.11-22.73,18-39.77,45.18-46,73.2-2.65,11.91-3.4,19.62-3.05,33.26.35,13.93,1.5,22.1,4.78,33.55a132.33,132.33,0,0,0,68.43,81.78,130.82,130.82,0,0,0,37.7,12.14c7.42,1.27,26.36,1.78,34.59.92a132.68,132.68,0,0,0,71.25-29.87c10.42-8.63,13.81-13.18,15.14-20.2a22,22,0,0,0-5.58-18.93A22.47,22.47,0,0,0,322.85,857a36.82,36.82,0,0,0-7.42,5.47c-17.61,16.29-37.52,24.29-60.71,24.29-42.3,0-78.73-30.85-85.92-72.8a86.71,86.71,0,0,1,16.46-67A87.26,87.26,0,0,1,313,734.25c17.38,15.54,30.39,20.89,48.57,20,25.72-1.27,46.62-17.78,53.92-42.7,1.21-4.2,1.55-6.79,1.78-13.52.35-9.55-.52-15.48-3.28-23.13-3.28-9-6.56-13.75-18.07-26.13-29.75-32.11-47-70-52.26-114.47-.4-3.51-.69-12.55-.69-20.14,0-18.36,1.44-30.79,5.7-47.88A197.25,197.25,0,0,1,705.1,406.15c17,26,27.39,55.13,31.25,87.82.92,8.17.92,32.11,0,40.28-3.05,25.84-9.84,48.46-21.06,70.21a198.39,198.39,0,0,1-31.19,44.26C672.58,661.1,669.3,665.82,666,674.85c-2.76,7.65-3.63,13.58-3.28,23.13.35,9.32,1.67,15.19,5.29,22.9a60.65,60.65,0,0,0,28.89,28.37,61.92,61.92,0,0,0,43,2.19c9.27-3.11,15.25-6.85,25.78-16.11,10.24-9,19.91-14.73,31.48-18.59a87.3,87.3,0,0,1,104,40.11,84.83,84.83,0,0,1,11,43c0,47.71-39.31,86.9-87.07,86.9-23.19,0-43.1-8-60.71-24.29-4.89-4.55-8.69-6.56-13.93-7.42-15-2.42-28.2,11.16-25.44,26,1.32,7,4.89,11.8,15.37,20.37a132.55,132.55,0,0,0,71,29.7c8.23.86,27.16.35,34.59-.92A132.59,132.59,0,0,0,955.5,822.3c1.78-10.13,2.24-29.06.92-39.13-5.12-39-25.55-72.11-57.89-93.81-2.7-1.78-5.7-3.68-6.73-4.2l-1.84-1,3.51-7.6a409.11,409.11,0,0,0,26.13-77.75,401,401,0,0,0,9.21-75.51c.4-13.18.92-15.48,4.14-18.93a14.1,14.1,0,0,1,24.29,9.44,22.92,22.92,0,0,0,13.12,20.6c2.94,1.38,4,1.55,9.61,1.55,5.81,0,6.62-.12,9.5-1.61a25.27,25.27,0,0,0,10.7-11c3.68-8.17,1.84-23.6-4.26-35.74A57.71,57.71,0,0,0,955,456.28a59.16,59.16,0,0,0-64.4,30.79c-4.95,9.67-5.81,13.81-6.45,30.21-.69,17.84-1,22.5-2.36,34.82-4.14,37.58-14,72.57-30.5,108.19l-4,8.69-5.29-.75c-2.94-.35-9.9-.69-15.48-.69l-10.19-.06,5.7-11.39a313.1,313.1,0,0,0,25.9-71.94c4.55-20.14,7.48-44.43,7.48-62.21,0-24.34,4.32-40.11,15.6-57,4.83-7.25,15.71-18.13,23-23,27.57-18.36,60.77-20.26,89.72-5.18,23,12,39.54,34.13,45.29,60.37,1.55,7,1.55,26.93,0,34-6.85,31.36-29.47,56.69-59,66.07a82.05,82.05,0,0,1-23,4.14c-11.11.63-15.71,2.36-20.37,7.54-10,11-6.39,29.24,7,35.51,3.22,1.5,3.57,1.55,13.93,1.5a104.83,104.83,0,0,0,32.4-4.6,132.59,132.59,0,0,0,94.5-109.75,175.39,175.39,0,0,0,0-34.76,131.8,131.8,0,0,0-37.12-75.62,131.47,131.47,0,0,0-85.86-39A130.31,130.31,0,0,0,885,395.22a127.93,127.93,0,0,0-35.39,25.32l-6.1,6.1L839.36,414c-14.73-44.83-38-83-72.86-119.88-6.1-6.45-7.25-8.57-7.25-13.29a13.79,13.79,0,0,1,13.81-13.87c3.86,0,7.19,1.44,10.76,4.6a31.34,31.34,0,0,0,5.87,3.86c2.88,1.44,3.86,1.61,9.27,1.61s6.39-.17,9.55-1.61a23.67,23.67,0,0,0,10.93-11,25.72,25.72,0,0,0,1.09-16.46c-1.9-6-6.27-11-14.39-16.46-22.21-15-52.89-12.83-72.51,5.12-6.39,5.87-13.47,16.69-16.29,24.92-2.47,7.25-3.17,12.55-2.82,21.81.29,10,1.61,15.6,5.7,23.88,3.11,6.27,6.22,10.47,13.87,18.42,42.76,44.6,67.45,97,75,158.89,1.5,12,1.44,47.36,0,59.28-5.87,47.48-21.58,88.86-47.77,126-9.55,13.58-28.31,35.11-32.92,37.75a14.8,14.8,0,0,1-10.93,1.44c-3.22-.92-7.6-4.66-9-7.77a16.55,16.55,0,0,1-.23-11c.46-1.15,3.4-4.78,6.5-8.11a256.32,256.32,0,0,0,19.91-23.71c49.55-66.47,61.23-155.9,30.44-233.65-12.09-30.56-28-54.9-53.23-81.49-8-8.52-12.89-15.19-17-23.6A87.36,87.36,0,0,1,812.2,202.77a99.58,99.58,0,0,1,28.08,21.87c8.75,10.13,15.42,24.11,18.65,38.85,1.84,8.57,1.84,25.78,0,34.13A89.52,89.52,0,0,1,837,340.14c-5.35,5.87-7.19,9.15-8.17,14.5a22.27,22.27,0,0,0,11.39,23.25,23,23,0,0,0,25.38-2.59c3.8-3.11,12.72-13.75,17.67-21.18a132.08,132.08,0,0,0-88.05-204.07c-8.75-1.55-26.36-2.07-35.51-1.15-31.19,3.22-61.29,17.84-81.32,39.42-20.78,22.44-31.88,45-36.31,74-.75,4.78-1,10.07-1,19L641,293.76l-5.18-2.24a245.76,245.76,0,0,0-67.62-18c-11.91-1.5-37.58-1.78-49.9-.63-26.76,2.59-51.28,8.69-74.07,18.53l-5.7,2.47.4-7c1.21-22.16-4.55-48.17-15-67.74-8.11-15.19-21.18-31.31-33.21-41.09A133.81,133.81,0,0,0,321.18,149C316,148.45,297.88,148.27,294,148.79Z" transform="translate(-4.8 -148.45)"/><path class="cls-1" d="M411.13,549.86a22.74,22.74,0,0,0-12.95,11.74c-1.61,3.45-1.78,4.2-1.78,9.5s.17,6.1,1.84,9.61c3.74,7.94,9.55,11.68,19.91,12.89,7.31.86,10.3,1.73,13.81,4.2a25.62,25.62,0,0,1,11.34,20.49c.12,19.11,21.81,29.35,37,17.44,7-5.52,9.27-14.73,7-28.66A69.86,69.86,0,0,0,430.7,549.8C424.31,548.65,414.47,548.7,411.13,549.86Z" transform="translate(-4.8 -148.45)"/><path class="cls-1" d="M648.76,549.8a70,70,0,0,0-53.46,46.67c-3.45,10.19-4.43,22.39-2.47,28.89,2.53,8.11,8.86,13.52,17.61,15.14,13.52,2.53,26.19-8.23,26.24-22.21A25.62,25.62,0,0,1,648,597.79c3.51-2.47,6.5-3.34,13.81-4.2,10.36-1.21,16.17-4.95,19.91-12.89,1.67-3.51,1.84-4.32,1.84-9.61s-.17-6.1-1.78-9.5a24,24,0,0,0-10.59-10.76c-2.88-1.44-3.86-1.61-10.65-1.73A66.71,66.71,0,0,0,648.76,549.8Z" transform="translate(-4.8 -148.45)"/><path class="cls-1" d="M246.48,741a59.38,59.38,0,0,0-48.74,43.62c-1.32,5.06-1.5,6.85-1.5,15s.17,9.9,1.44,14.68c3.68,13.64,13,27.22,21.52,31.42,3.11,1.55,3.91,1.67,9.73,1.67,5.64,0,6.68-.17,9.5-1.5a22.74,22.74,0,0,0,12.72-16.69c1.27-6.85-.92-13.75-6.1-19.68a20.34,20.34,0,0,1-3.51-5.81c-2.94-8.81,4-18.19,13.47-18.19,5.35,0,6.91,1,20.78,14A386.22,386.22,0,0,0,492.22,899.93c18.07,2.19,25.9,2.65,47.77,2.65,41.55,0,73.26-4.6,112.8-16.23C707.34,870.29,762,839,804.2,799.51c13.87-13,15.42-14,20.78-14,9.5,0,16.4,9.38,13.47,18.19a20.34,20.34,0,0,1-3.51,5.81c-5.24,5.93-7.37,13.06-6.1,19.8a22.83,22.83,0,0,0,12.72,16.57c2.82,1.32,3.86,1.5,9.5,1.5,5.81,0,6.62-.12,9.73-1.67,8.52-4.2,17.84-17.78,21.52-31.42,1.27-4.78,1.44-6.62,1.44-14.68s-.17-9.9-1.5-15c-3.91-14.79-13.93-28.26-26.59-35.68A56.17,56.17,0,0,0,828,740.69a57.18,57.18,0,0,0-22.16,3c-10.13,3.4-16.17,7.6-31.42,21.81a341.6,341.6,0,0,1-168.22,86.09,345.51,345.51,0,0,1-194.81-18.47A427,427,0,0,1,369,812.51a347.89,347.89,0,0,1-63.42-47c-10.59-9.9-16.11-14.39-21.52-17.5a66.1,66.1,0,0,0-18.59-6.62C261.51,740.69,249.94,740.4,246.48,741Z" transform="translate(-4.8 -148.45)"/></svg>