<?xml version="1.0" encoding="utf-8"?>
<!-- Generator: Adobe Illustrator 20.0.0, SVG Export Plug-In . SVG Version: 6.00 Build 0)  -->
<svg version="1.1" id="Layer_1" xmlns="http://www.w3.org/2000/svg" xmlns:xlink="http://www.w3.org/1999/xlink" x="0px" y="0px"
	 viewBox="0 0 16 16" style="enable-background:new 0 0 16 16;" xml:space="preserve">
<style type="text/css">
	.st0{fill:#FFFFFF;}
</style>
<g transform="translate(0.000000,16.000000) scale(0.000860,-0.000860)">
	<path class="st0" d="M4.3,2.2C3.8,2.2,3.4,2.4,3.1,2.7C2.8,3,2.6,3.5,2.5,3.9c0,0.1,0,0.4,0,0.5c0.1,0.4,0.2,0.7,0.4,1
		c0.1,0.1,0.1,0.1,0.2,0.2c0.2,0.1,0.5-0.1,0.5-0.4c0-0.1,0-0.1-0.1-0.2C3.4,4.8,3.3,4.6,3.2,4.3c0-0.1,0-0.1,0-0.2
		c0-0.2,0-0.4,0.1-0.5c0.1-0.1,0.1-0.2,0.3-0.4c0.5-0.5,1.3-0.5,1.8,0c0.4,0.4,0.5,1,0.2,1.5C5.6,4.8,5.5,4.9,5.4,5
		C5.1,5.4,4.9,5.6,4.8,6C4.3,6.8,4.3,7.9,4.6,8.8C4.7,9.3,5,9.7,5.4,10.1c0,0,0.1,0.1,0.1,0.1c0,0,0,0.1,0,0.2c0,0-0.1,0.1-0.1,0.1
		c-0.1,0-0.1,0-0.2,0c-0.1,0-0.3-0.4-0.5-0.6C4.6,9.8,4.5,9.6,4.4,9.4C4.2,9,4,8.6,4,8.1c0-0.2,0-0.7,0-0.9C4,6.7,4.2,6.2,4.4,5.8
		c0.2-0.4,0.4-0.7,0.7-1c0.1-0.1,0.1-0.1,0.2-0.2c0.1-0.2,0.2-0.5,0.1-0.8C5.3,3.6,5.2,3.5,5,3.4c-0.3-0.2-0.7-0.2-1,0
		C3.8,3.5,3.8,3.6,3.8,3.8c0,0.1,0,0.1,0,0.1C3.9,3.9,3.9,4,4,4c0,0,0.1,0,0.1,0s0.1,0,0.1,0c0,0,0.1,0,0.1-0.1
		c0.1,0,0.1-0.1,0.2-0.1c0.1,0,0.2,0.1,0.2,0.2c0,0.1,0,0.1-0.1,0.2C4.4,4.5,4.3,4.7,4.1,4.9C3.9,5.3,3.7,5.7,3.5,6.1l0,0.2L3.4,6.2
		C3.1,5.9,2.7,5.7,2.2,5.6c-0.1,0-0.4,0-0.5,0C0.9,5.7,0.2,6.4,0,7.3c0,0.1,0,0.4,0,0.6c0,0.2,0.1,0.4,0.2,0.6
		c0.3,0.6,0.8,1,1.4,1.1c0.1,0,0.1,0,0.3,0c0.2,0,0.2,0,0.2,0C2.3,9.5,2.4,9.2,2.2,9C2.2,8.9,2.1,8.9,1.9,8.9c-0.1,0-0.2,0-0.2,0
		c-0.5-0.1-0.9-0.5-1-1c0-0.1,0-0.3,0-0.4c0.1-0.8,0.9-1.3,1.7-1.1c0.2,0.1,0.4,0.2,0.5,0.3c0.2,0.2,0.3,0.4,0.3,0.6
		c0,0.1,0,0.2,0,0.4c0,0.3,0,0.4,0.1,0.6c0.1,0.5,0.2,0.9,0.4,1.4l0.1,0.2l-0.2,0c-0.1,0-0.2,0-0.2,0l-0.1,0L3.3,9.8
		C3,9.1,2.9,8.5,2.9,7.8c0-0.3,0-0.4,0-0.5C2.7,7,2.4,6.8,2.1,6.7c-0.1,0-0.3,0-0.3,0C1.5,6.8,1.3,7,1.2,7.2
		C1.1,7.4,1.1,7.6,1.1,7.7c0,0.1,0.1,0.1,0.2,0.2c0,0,0.1,0,0.1,0c0.1,0,0.1,0,0.2,0c0.1,0,0.1-0.1,0.2-0.2c0,0,0-0.1,0-0.1
		c0-0.1,0-0.2,0.1-0.2c0.1,0,0.2,0,0.3,0.1c0,0,0,0.1,0,0.2c0,0.8,0.2,1.6,0.5,2.3l0.1,0.1l0,0c0,0-0.2,0.1-0.2,0.2
		c-0.3,0.3-0.6,0.7-0.7,1.1c0,0.2-0.1,0.3,0,0.5c0,0.2,0,0.3,0.1,0.5c0.2,0.5,0.5,1,1,1.2c0.2,0.1,0.4,0.1,0.6,0.2
		c0.1,0,0.4,0,0.5,0c0.4,0,0.8-0.2,1.1-0.4c0.2-0.1,0.2-0.2,0.2-0.3c0-0.1,0-0.2-0.1-0.3c-0.1-0.1-0.3-0.1-0.4-0.1
		c0,0-0.1,0-0.1,0.1c-0.3,0.2-0.6,0.4-0.9,0.4c-0.6,0-1.2-0.5-1.3-1.1c-0.1-0.4,0-0.7,0.2-1c0.2-0.2,0.5-0.4,0.8-0.5
		c0.4-0.1,0.8,0,1.1,0.3c0.3,0.2,0.5,0.3,0.7,0.3c0.4,0,0.7-0.3,0.8-0.6c0-0.1,0-0.1,0-0.2c0-0.1,0-0.2,0-0.3c0-0.1-0.1-0.2-0.3-0.4
		c-0.4-0.5-0.7-1-0.8-1.7c0-0.1,0-0.2,0-0.3c0-0.3,0-0.5,0.1-0.7c0.2-1,1-1.7,1.9-2.1c0.6-0.2,1.3-0.2,1.9,0C9.6,5,10.1,5.4,10.5,6
		c0.3,0.4,0.4,0.8,0.5,1.3c0,0.1,0,0.5,0,0.6c0,0.4-0.1,0.7-0.3,1c-0.1,0.2-0.3,0.5-0.5,0.7C10,9.8,9.9,9.9,9.9,10
		c0,0.1-0.1,0.2,0,0.3c0,0.1,0,0.2,0.1,0.3c0.1,0.2,0.2,0.3,0.4,0.4c0.2,0.1,0.4,0.1,0.6,0c0.1,0,0.2-0.1,0.4-0.2
		c0.2-0.1,0.3-0.2,0.5-0.3c0.6-0.2,1.2,0,1.6,0.6c0.1,0.2,0.2,0.4,0.2,0.6c0,0.7-0.6,1.3-1.3,1.3c-0.3,0-0.6-0.1-0.9-0.4
		c-0.1-0.1-0.1-0.1-0.2-0.1c-0.2,0-0.4,0.2-0.4,0.4c0,0.1,0.1,0.2,0.2,0.3c0.3,0.3,0.7,0.4,1.1,0.4c0.1,0,0.4,0,0.5,0
		c0.4-0.1,0.8-0.3,1.1-0.6c0.3-0.3,0.5-0.7,0.6-1.1c0-0.2,0-0.4,0-0.6c-0.1-0.6-0.4-1.1-0.9-1.4c0,0-0.1-0.1-0.1-0.1l0,0l0.1-0.1
		c0.2-0.4,0.3-0.8,0.4-1.2c0.1-0.4,0.1-0.7,0.1-1.1c0-0.2,0-0.2,0.1-0.3c0,0,0.1-0.1,0.2-0.1c0.1,0,0.1,0,0.2,0.1
		c0,0,0.1,0.1,0.1,0.1c0,0.1,0.1,0.3,0.2,0.3c0,0,0.1,0,0.1,0c0.1,0,0.1,0,0.1,0c0.1,0,0.1-0.1,0.2-0.2c0.1-0.1,0-0.4-0.1-0.5
		c-0.1-0.2-0.3-0.4-0.6-0.5c-0.4-0.1-0.8,0.1-1,0.5c-0.1,0.1-0.1,0.2-0.1,0.5c0,0.3,0,0.3,0,0.5c-0.1,0.6-0.2,1.1-0.5,1.6l-0.1,0.1
		l-0.1,0c0,0-0.1,0-0.2,0l-0.2,0l0.1-0.2c0.2-0.4,0.3-0.7,0.4-1.1c0.1-0.3,0.1-0.7,0.1-0.9c0-0.4,0.1-0.6,0.2-0.9
		c0.1-0.1,0.2-0.3,0.3-0.3c0.4-0.3,0.9-0.3,1.3-0.1C15,6.6,15.2,7,15.3,7.4c0,0.1,0,0.4,0,0.5c-0.1,0.5-0.4,0.8-0.9,1
		c-0.1,0-0.2,0.1-0.3,0.1c-0.2,0-0.2,0-0.3,0.1c-0.1,0.2-0.1,0.4,0.1,0.5c0,0,0.1,0,0.2,0c0.2,0,0.3,0,0.5-0.1
		c0.8-0.2,1.3-0.9,1.4-1.6c0-0.1,0-0.4,0-0.5c-0.1-0.4-0.3-0.8-0.6-1.1c-0.2-0.2-0.3-0.3-0.5-0.4c-0.2-0.1-0.5-0.2-0.7-0.2
		c-0.3,0-0.7,0-1,0.2c-0.2,0.1-0.4,0.2-0.5,0.4l-0.1,0.1l-0.1-0.2c-0.2-0.7-0.6-1.2-1.1-1.8c-0.1-0.1-0.1-0.1-0.1-0.2
		c0-0.1,0.1-0.2,0.2-0.2c0.1,0,0.1,0,0.2,0.1c0,0,0.1,0,0.1,0.1c0,0,0.1,0,0.1,0c0.1,0,0.1,0,0.1,0c0.1,0,0.1-0.1,0.2-0.2
		c0-0.1,0-0.2,0-0.2c0-0.1-0.1-0.2-0.2-0.2c-0.3-0.2-0.8-0.2-1.1,0.1c-0.1,0.1-0.2,0.2-0.2,0.4c0,0.1,0,0.2,0,0.3
		c0,0.1,0,0.2,0.1,0.4c0,0.1,0.1,0.2,0.2,0.3c0.6,0.7,1,1.4,1.1,2.4c0,0.2,0,0.7,0,0.9c-0.1,0.7-0.3,1.3-0.7,1.9
		c-0.1,0.2-0.4,0.5-0.5,0.6c0,0-0.1,0-0.2,0c0,0-0.1-0.1-0.1-0.1c0,0,0-0.1,0-0.2c0,0,0.1-0.1,0.1-0.1c0.1-0.1,0.2-0.2,0.3-0.4
		c0.7-1,0.9-2.3,0.5-3.5c-0.2-0.5-0.4-0.8-0.8-1.2c-0.1-0.1-0.2-0.2-0.3-0.4c-0.2-0.5-0.2-1.1,0.2-1.5c0.4-0.4,1-0.5,1.5-0.2
		c0.1,0.1,0.3,0.2,0.4,0.3c0.1,0.2,0.2,0.4,0.3,0.6c0,0.1,0,0.4,0,0.5c-0.1,0.2-0.2,0.5-0.3,0.6c-0.1,0.1-0.1,0.1-0.1,0.2
		c0,0.1,0,0.3,0.2,0.3c0.1,0.1,0.3,0,0.4,0c0.1,0,0.2-0.2,0.3-0.3c0.3-0.4,0.4-1,0.3-1.5c-0.1-0.6-0.5-1.1-1-1.4
		c-0.2-0.1-0.4-0.2-0.6-0.2c-0.1,0-0.4,0-0.5,0c-0.5,0-0.9,0.3-1.2,0.6C9.8,3.1,9.6,3.4,9.5,3.8c0,0.1,0,0.2,0,0.3l0,0.2l-0.1,0
		C9.1,4.2,8.8,4.1,8.4,4C8.2,4,7.9,4,7.7,4C7.3,4,6.9,4.1,6.6,4.3l-0.1,0l0-0.1c0-0.3-0.1-0.7-0.2-1C6.1,3,5.9,2.7,5.8,2.6
		c-0.3-0.2-0.7-0.4-1-0.4C4.7,2.1,4.4,2.1,4.3,2.2z"/>
	<path class="st0" d="M6.1,8.1C6,8.2,5.9,8.2,5.9,8.3c0,0.1,0,0.1,0,0.1c0,0.1,0,0.1,0,0.1C5.9,8.7,6,8.8,6.2,8.8
		c0.1,0,0.2,0,0.2,0.1C6.5,8.9,6.6,9,6.6,9.2c0,0.3,0.3,0.4,0.6,0.3C7.2,9.3,7.2,9.2,7.2,9C7.1,8.6,6.8,8.2,6.4,8.1
		C6.3,8.1,6.1,8.1,6.1,8.1z"/>
	<path class="st0" d="M9.6,8.1C9.3,8.2,8.9,8.5,8.8,8.8C8.8,9,8.8,9.2,8.8,9.3c0,0.1,0.1,0.2,0.3,0.2c0.2,0,0.4-0.1,0.4-0.3
		c0-0.1,0.1-0.2,0.2-0.3c0.1,0,0.1,0,0.2-0.1c0.2,0,0.2-0.1,0.3-0.2c0-0.1,0-0.1,0-0.1c0-0.1,0-0.1,0-0.1c0-0.1-0.1-0.1-0.2-0.2
		c0,0-0.1,0-0.2,0C9.7,8.1,9.7,8.1,9.6,8.1z"/>
	<path class="st0" d="M3.6,11c-0.4,0.1-0.6,0.3-0.7,0.7c0,0.1,0,0.1,0,0.2c0,0.1,0,0.1,0,0.2c0.1,0.2,0.2,0.4,0.3,0.5
		c0,0,0.1,0,0.1,0c0.1,0,0.1,0,0.1,0c0.1,0,0.2-0.1,0.2-0.2c0-0.1,0-0.2-0.1-0.3c0,0,0-0.1-0.1-0.1c0-0.1,0.1-0.3,0.2-0.3
		c0.1,0,0.1,0,0.3,0.2c0.9,0.8,2,1.4,3.2,1.5c0.3,0,0.4,0,0.7,0c0.6,0,1.1-0.1,1.7-0.2c0.8-0.2,1.6-0.7,2.3-1.3
		c0.2-0.2,0.2-0.2,0.3-0.2c0.1,0,0.2,0.1,0.2,0.3c0,0,0,0.1-0.1,0.1c-0.1,0.1-0.1,0.2-0.1,0.3c0,0.1,0.1,0.2,0.2,0.2
		c0,0,0.1,0,0.1,0c0.1,0,0.1,0,0.1,0c0.1-0.1,0.3-0.3,0.3-0.5c0-0.1,0-0.1,0-0.2c0-0.1,0-0.1,0-0.2c-0.1-0.2-0.2-0.4-0.4-0.5
		C12.6,11,12.5,11,12.3,11c-0.1,0-0.2,0-0.3,0c-0.2,0.1-0.2,0.1-0.5,0.3C10.8,12,9.9,12.5,9,12.7c-1,0.2-2,0.1-2.9-0.3
		c-0.2-0.1-0.5-0.2-0.6-0.3c-0.3-0.2-0.7-0.4-0.9-0.7c-0.2-0.1-0.2-0.2-0.3-0.3C4.1,11.1,4,11,3.9,11C3.8,11,3.7,11,3.6,11z"/>
</g>
</svg>
